<?xml version="1.0" encoding="utf-8"?>
<!-- Generator: Adobe Illustrator 21.0.2, SVG Export Plug-In . SVG Version: 6.00 Build 0)  -->
<svg version="1.1" id="Слой_1" xmlns="http://www.w3.org/2000/svg" xmlns:xlink="http://www.w3.org/1999/xlink" x="0px" y="0px"
	 viewBox="0 0 999 999" style="enable-background:new 0 0 999 999;" xml:space="preserve">
<style type="text/css">
	.st0{fill:#98C359;}
</style>
<g transform="translate(0.000000,999.000000) scale(0.100000,-0.100000)">
	<path class="st0" d="M4530,9979c-52-4-171-19-265-34c-778-121-1446-378-2065-796c-430-290-841-676-1175-1104
		c-351-448-643-1014-810-1570c-82-271-135-511-181-815c-23-158-27-212-31-549c-7-515,16-769,107-1183c90-412,198-719,390-1116
		c160-329,284-536,470-782c641-850,1493-1465,2463-1779c340-110,630-171,1097-228c203-25,722-25,930,1c676,82,1171,221,1705,480
		c1462,709,2488,2078,2749,3671c99,606,99,1060,0,1658c-122,732-410,1431-851,2058c-56,80-123,169-149,198c-25,28-58,69-73,91
		c-78,117-440,480-671,675c-729,614-1741,1034-2700,1120C5292,9991,4703,9994,4530,9979z M5543,9531c935-122,1762-492,2446-1094
		c817-720,1327-1642,1506-2725c38-229,46-352,46-707c0-369-8-489-52-750c-103-623-337-1219-695-1768c-413-632-974-1144-1651-1505
		c-461-246-911-401-1400-482c-232-38-372-49-732-56c-266-6-315-4-481,15c-612,73-1107,217-1590,464c-820,419-1484,1055-1933,1848
		c-414,732-607,1537-576,2404c34,959,368,1872,963,2635c754,966,1878,1595,3081,1724c224,24,224,24,580,21
		C5317,9552,5417,9547,5543,9531z"/>
	<path class="st0" d="M4053,8813c-10-27-23-33-78-33c-27-1-68-7-90-15s-55-15-73-15s-42-5-52-10c-10-6-45-14-77-19
		c-188-30-312-59-337-80c-6-5-38-16-71-24c-33-9-105-32-160-52c-103-37-111-40-157-50c-16-3-28-12-28-19c0-37,132-25,252,23
		c42,17,82,31,88,31s39,11,73,24c106,41,200,69,257,77c30,4,109,19,175,33c152,32,227,34,263,5c46-36,157-114,235-164
		c63-41,107-24,69,27c-10,13-23,35-30,51c-6,15-49,66-94,113C4115,8824,4067,8851,4053,8813z"/>
	<path class="st0" d="M4190,8820c-20-14-1-28,108-82c80-40,95-51,117-87c42-69,52-81,68-81c27,0,30,24,9,73c-27,62-83,114-166,153
		C4254,8831,4216,8837,4190,8820z"/>
	<path class="st0" d="M4450,8816c0-7,10-20,23-28c12-9,53-43,90-77c54-49,74-61,95-59c15,2,28,10,30,19c4,22-87,113-138,139
		C4504,8833,4450,8837,4450,8816z"/>
	<path class="st0" d="M6161,8557c-6-8-19-55-30-105c-10-51-24-99-31-107c-19-23-5-45,29-45c20,0,32,6,36,19c9,29,80,90,112,96
		c16,3,44,10,63,15s58,12,85,16c62,8,67,11,55,34c-11,21-67,40-116,40c-26,0-33,5-38,25c-8,33-21,32-63-5c-18-16-38-30-44-30
		c-5,0-12,14-15,30C6197,8572,6180,8579,6161,8557z"/>
	<path class="st0" d="M6328,8003c-8-10-32-71-53-136s-41-120-45-122c-4-3-11-22-15-42c-4-21-10-42-13-48c-20-31-33-118-39-258
		c-5-142-4-161,13-192c10-19,22-35,26-35c16,0,17,20,3,46c-17,34-20,178-5,293c9,65,43,187,70,246c5,11,23,63,40,115s35,103,40,112
		C6371,8019,6355,8034,6328,8003z"/>
	<path class="st0" d="M3765,7949c4-5,17-15,28-20c20-9,80-48,303-196c44-29,88-59,98-65c42-28,136-109,136-118c0-5,12-24,28-42
		c31-38,43-56,77-120c14-26,46-80,71-119c26-40,51-90,56-113c9-45,38-106,50-106c14,0,19,21,8,35c-6,8-17,38-24,67
		c-7,30-30,80-53,113c-22,33-50,79-62,103c-70,138-214,298-313,348c-27,13-48,28-48,33c0,4-12,13-26,20c-15,6-45,26-68,44
		c-49,40-143,97-158,97c-5,0-23,11-40,25C3799,7960,3752,7970,3765,7949z"/>
	<path class="st0" d="M7433,7739c10-13,35-51,56-84c22-33,54-77,72-98c17-21,45-57,60-80c45-65,103-136,113-136c4,0,18-19,30-42
		c24-48,53-67,41-28c-5,19-4,21,4,9c6-8,11-25,11-36c0-12,21-50,47-85c53-71,101-146,146-229c17-30,46-76,64-102s33-50,33-53
		s-21,5-47,18c-27,13-61,27-78,31c-16,4-41,18-55,31c-37,34-201,133-235,141c-17,4-34,10-40,14c-5,4-37,15-70,24s-73,21-90,26
		c-16,5-55,15-85,24c-70,19-146,44-185,60c-19,9-38,10-53,5c-12-5-53-11-90-15s-73-11-79-17c-13-9-14-8-17,16c-2,20-42,10-160-42
		c-61-27-122-52-136-56c-24-7-94-41-230-109c-36-19-77-36-92-40c-20-4-28-13-28-28c0-19,4-20,54-15c40,4,87,22,176,68
		c66,34,124,59,127,55c9-8-26-34-57-42c-22-6-75-36-146-82c-10-6-35-20-54-29c-65-32-88-53-96-86c-8-32-8-32-15,16
		c-9,60-36,119-52,114c-7-2-19-17-28-35c-9-17-22-38-28-46s-25-51-41-97c-18-52-36-86-47-90c-16-5-15-7,5-25c12-10,22-24,22-31
		s6-13,13-13s30-9,51-21c45-24,58-18,28,14c-11,12-26,35-32,52c-10,26-8,38,16,87c37,78,62,80,30,3c-11-26-12-37-3-49
		c11-15,80-35,137-39c28-3,165-32,225-49c22-6,56-12,75-13c53-4,212-36,233-46c10-6,91-17,180-25s192-21,228-29s175-23,310-35
		c135-11,285-29,334-39c126-27,250-37,260-21c12,19-20,38-74,45c-25,3-71,12-101,20c-30,7-109,18-175,25c-66,6-147,16-180,22
		s-105,12-160,13c-68,1-136,10-215,28c-83,20-129,26-165,21c-34-4-78,1-135,14c-47,12-107,24-135,27c-27,4-72,13-100,20
		c-27,7-84,19-125,26l-75,13l45,8c26,5,68,4,99-2c30-6,143-10,250-11c108,0,255-5,326-10c72-6,182-14,245-19c266-19,411-35,622-69
		c31-5,69-17,85-26c31-19,83-87,83-110c0-7,5-17,10-20c6-3,10-17,10-29c0-13,9-43,20-67c23-52,25-106,6-151c-19-41-63-191-72-241
		c-3-20-11-40-16-43c-16-10-28-54-22-80c7-26,35-32,51-11c15,20,43,101,43,125c0,13,8,44,19,70c42,105,55,169,59,283
		c3,96,0,131-18,205c-26,103-58,179-89,212c-25,25-32,27-49,10c-18-18-39,6-62,77c-12,35-28,69-36,75c-8,7-14,16-14,21s-13,28-30,51
		c-16,22-30,47-30,53c0,7-7,19-17,26c-9,8-25,33-35,56s-22,43-26,45c-8,4-105,137-122,168c-22,41-162,190-179,190c-5,0-13,9-16,20
		s-10,20-15,20s-12,9-15,20s-13,20-21,20s-14,4-14,10c0,10-78,113-173,230c-29,36-61,67-72,69C7417,7762,7417,7761,7433,7739z
		 M7300,7019c30-10,61-19,70-19c8-1,33-9,55-20s49-20,60-20c11-1,40-9,65-20c38-15,42-19,25-25c-38-13-86-40-101-57
		c-25-27-30-95-9-118c39-43,109-57,337-69c227-12,290-25,324-63l19-21l-50,8c-27,4-72,8-100,9c-27,2-90,8-140,14
		c-103,13-298,26-745,47c-403,20-653,35-659,40c-2,3,5,8,15,12s75,40,143,80c67,40,125,73,128,73s23,13,46,29s72,45,109,65
		s70,41,73,46c3,6,16,10,28,10s40,7,62,15C7105,7054,7222,7046,7300,7019z M8218,6671c3-8-1-12-9-9c-7,2-15,10-17,17c-3,8,1,12,9,9
		C8208,6686,8216,6678,8218,6671z M6570,6600c0-5-16-10-36-10c-21,0-33,4-29,10c3,6,19,10,36,10C6557,6610,6570,6606,6570,6600z"/>
	<path class="st0" d="M6322,7433c-38-159-70-383-60-429c9-42,28,25,43,150c9,70,19,136,24,149c15,38,24,167,12,167
		C6336,7470,6327,7453,6322,7433z"/>
	<path class="st0" d="M3340,7391c0-15,49-39,117-56c32-8,105-28,163-45c58-18,130-37,160-45c30-7,84-22,120-33c36-12,101-32,145-46
		c104-32,188-68,198-83c4-7,15-13,23-13s38-12,66-26c34-17,54-22,61-15s-2,15-27,27c-20,10-36,21-36,26c0,4-5,8-11,8
		c-7,0-55,20-108,44s-116,49-141,55c-25,7-61,18-80,25c-55,22-158,52-240,71c-77,18-189,50-225,66c-17,7-87,27-162,46
		C3349,7400,3340,7398,3340,7391z"/>
	<path class="st0" d="M2465,7259c-203-27-349-61-423-98c-20-10-120-46-222-81c-196-66-255-92-263-112c-7-21,22-67,46-72
		c12-3,45-7,72-10c56-5,192-29,251-45c54-13,187-29,408-46c103-8,206-20,228-25c43-12,446-31,633-30c66,1,165-6,220-14
		c55-9,198-21,318-28c199-11,250-18,236-32c-3-3-211-10-462-17c-533-13-674-9-1122,28c-126,11-233,18-237,16c-13-7-9-41,5-50
		c6-4,59-11,117-15c58-3,170-12,250-19c159-15,477-17,1040-8c225,4,302,3,200-2c-321-15-862-29-1137-29c-293,0-322-4-307-43
		c8-21,15-21,536-8c565,15,980,20,918,11c-78-11-125-19-205-35c-38-8-167-17-285-20c-230-6-306-14-304-30c3-24,148-29,534-20
		c205,4,222,3,187-10c-21-8-62-17-90-21c-59-6-146-29-195-50c-18-8-43-14-56-14c-45,0-118-32-104-45c7-7,126,14,150,26
		c21,11,76,25,193,49c163,34,177,38,185,50s50,5,50-8c0-4-27-20-60-35c-33-16-63-34-67-41c-11-17-91-34-209-46c-55-6-116-15-135-20
		c-18-6-69-10-112-10c-67,0-80-3-83-17c-4-15-14-17-59-15c-58,4-75-11-32-28c21-8,21-9-5-9c-15-1-29-5-33-10c-3-5-19-12-35-16
		c-17-4-30-11-30-16c0-18,28-20,59-5c16,9,40,16,53,16c34,0,108,31,108,45s25,27,34,18c3-4,1-12-5-20c-13-15-2-17,33-4
		c13,4,43,11,68,15c66,10,38-12-37-29c-78-18-143-44-143-57c0-6,10-7,23-4c51,16,214,59,240,63c19,4,26,10,23,19c-4,10,4,14,27,14
		c68,0,137,13,137,25c0,8,13,13,34,13c44,0,131,44,130,65c-1,9,12,20,30,27c17,6,38,16,46,21c81,51,193,67,221,32c13-15,12-16-11-8
		c-42,14-94,8-135-14c-22-11-45-21-51-21s-17-7-24-15c-18-21,15-32,38-12c9,8,35,17,57,20s54,9,70,12c54,13,14-10-110-63
		c-120-51-233-92-257-92c-7,0-26-7-42-15c-39-20-176-55-218-55c-18,0-55-7-82-15s-79-15-115-15s-81-4-99-10c-19-5-73-12-120-15
		c-48-4-96-10-107-15s-41-11-67-15c-27-3-48-10-48-15c0-18,65-21,109-6c24,9,74,16,111,16s80,4,96,10c16,5,76,14,134,19
		c142,14,285,42,395,79c17,6,77,25,135,43c58,17,139,49,180,70c41,20,91,44,110,52c30,12,91,49,174,107c12,8,32,25,44,38
		c12,12,25,22,30,22c4,0,18,16,31,35c18,27,21,39,13,47c-7,7-12,21-12,33c0,46-10,49-113,31c-135-23-137-23-137,18v35l193-6
		c208-6,237-1,237,40c0,14-12,30-33,43c-43,29-273,220-283,236c-5,9,0,8,16-3c14-8,66-39,115-69c93-55,106-65,216-155
		c87-72,139-91,139-51c0,8-33,44-72,82c-68,65-130,107-381,261c-56,35-114,72-129,83s-34,20-42,20c-18,0-27-25-14-38
		c9-9-44,5-107,29c-11,4-49,14-85,23c-174,44-241,55-331,56c-52,0-99,4-105,9c-5,5-65,11-134,15c-69,3-165,10-215,15
		C2872,7284,2621,7280,2465,7259z M3020,7176c47-1,126-8,175-14c50-6,142-14,205-18l115-7l-70-22c-81-27-135-76-135-124
		c0-24,10-37,52-68c69-50,177-75,354-80c160-5,234,7,291,47c23,17,47,30,53,30c21,0,209-154,200-163c-3-3-106,1-230,9
		c-195,12-281,19-555,49c-27,3-194,10-370,16c-176,5-347,14-380,19c-33,6-180,19-327,30c-148,11-298,26-335,34c-38,9-110,23-160,32
		c-93,16-113,27-70,37c12,3,60,20,107,37c47,18,108,40,136,50s64,24,80,32c90,45,454,90,659,82C2881,7181,2973,7178,3020,7176z
		 M4257,6554c8-22-49-78-114-110c-43-22-59-26-81-18c-31,11-41,39-16,48c10,4,44,9,77,13c54,6,60,9,72,37c7,17,17,34,21,39
		C4229,6575,4250,6571,4257,6554z M4010,6520c18-6,5-8-45-9c-38,0-77,4-85,9C3861,6532,3972,6532,4010,6520z M3750,6490
		c0-5-9-10-19-10c-11,0-23,5-26,10c-4,6,5,10,19,10S3750,6496,3750,6490z M3860,6450c0-5-9-10-19-10c-11,0-23,5-26,10
		c-4,6,5,10,19,10S3860,6456,3860,6450z M3487,6234c-3-3-12-4-19-1c-8,3-5,6,6,6C3485,6240,3491,6237,3487,6234z"/>
	<path class="st0" d="M1197,7243c-13-12-7-99,8-120c9-12,39-28,70-37c30-9,57-21,60-26c10-16,78-12,103,6c45,31,22,57-119,133
		C1221,7251,1209,7255,1197,7243z"/>
	<path class="st0" d="M4180,7209c0-5,15-16,34-24s37-19,40-24s17-12,31-15c13-3,44-20,69-36c24-17,62-38,83-46c21-9,50-25,65-35
		c31-23,48-24,48-5c0,15-18,27-95,65c-22,11-85,45-140,76C4218,7218,4180,7231,4180,7209z"/>
	<path class="st0" d="M1197,6983c-14-13-6-30,18-41c48-22,203-10,166,12C1344,6977,1211,6998,1197,6983z"/>
	<path class="st0" d="M1450,6731c-13-25-6-42,28-63c26-17,94-71,176-140c21-18,58-46,82-63c23-16,62-46,86-67c55-46,240-144,296-156
		c48-11,97-2,97,17c0,7-23,22-51,32c-77,29-242,116-288,152c-23,17-82,65-133,107c-160,131-255,200-275,200
		C1464,6750,1456,6741,1450,6731z"/>
	<path class="st0" d="M6281,6492c-14-26-14-28,5-46c11-12,35-16,85-16c40,0,68-4,65-9s-15-7-26-4c-14,4-21-1-26-21
		c-12-48,3-74,57-104c28-15,110-66,183-113c266-175,305-199,326-199c12,0,18-5,15-10c-13-21,27-22,49-1c12,11,26,21,31,21
		s-1-9-13-21c-26-23-21-44,7-30c10,6,23,17,31,25c18,22-4,46-41,46c-17,0-29,5-29,13c0,9-12,11-39,9c-21-2-42,1-45,7c-4,6,0,11,8,11
		c9,0,16,2,16,5c0,13-34,57-52,66c-15,8-20,5-28-15c-8-22-13-24-39-16c-28,8-48,22-144,101c-18,14-40,29-51,32c-13,5-16,12-11,25
		c21,48-7,86-70,95c-16,3-42,8-57,12c-26,7-28,5-28-21v-27l-24,22l-24,22l24,24c13,13,24,29,24,35c0,14,38,12,85-6c22-9,57-18,78-20
		c48-5,79-21,159-82c35-26,97-70,138-97c41-28,104-74,140-102c62-51,90-64,90-43c0,8-136,117-181,145c-101,63-214,148-201,153
		c15,5,131-56,177-94c49-39,206-144,217-144c22,0,4,33-25,45c-19,8-40,21-47,30s-34,28-59,42c-49,28-101,72-101,85c0,16,66-6,106-36
		c23-17,73-53,110-81c84-61,84-61,84-36c0,14-12,27-37,40c-21,10-55,33-77,50c-21,17-45,31-52,31c-8,0-14,5-14,11c0,13,89,5,332-30
		c42-6,148-12,235-14c135-2,158,0,158,13c0,20-102,38-232,39c-58,1-105,5-108,11c-4,6-21,8-38,5c-18-4-44-2-58,4c-15,5-93,17-175,25
		c-144,16-232,31-359,64c-33,8-76,16-95,17s-55,7-80,14c-219,56-280,64-280,36c0-20-10-19-36,6l-22,21L6281,6492z M6598,6288
		c5-26-40-23-64,3c-18,20-18,20,21,17C6583,6306,6596,6300,6598,6288z M6900,6080c0-5-7-10-16-10c-8,0-12,5-9,10c3,6,10,10,16,10
		C6896,6090,6900,6086,6900,6080z"/>
	<path class="st0" d="M6162,6488c6-20,176-130,194-126c19,3-55,63-137,111C6168,6503,6157,6506,6162,6488z"/>
	<path class="st0" d="M1482,6438c3-7,16-19,30-28c30-18,123-82,158-108c58-44,206-137,278-174c42-21,81-43,86-49c6-5,17-9,25-9
		c30,0-39,56-116,95c-43,22-100,56-128,76c-27,19-70,48-95,63s-83,54-129,87C1510,6448,1474,6464,1482,6438z"/>
	<path class="st0" d="M6637,6363c-7-11,213-184,253-201c30-12,30-12,20,8c-6,11-28,29-50,40c-21,11-41,24-45,30
		c-6,9-131,105-162,123C6647,6367,6639,6367,6637,6363z"/>
	<path class="st0" d="M3785,6309c-10-15,3-25,16-12c7,7,7,13,1,17C3796,6317,3788,6315,3785,6309z"/>
	<path class="st0" d="M6650,6262c0-14,54-60,74-64c37-6,27,21-17,46C6660,6272,6650,6275,6650,6262z"/>
	<path class="st0" d="M6747,6173c-10-10,13-33,33-33c18,0,34,23,23,34C6795,6182,6755,6182,6747,6173z"/>
	<path class="st0" d="M7080,6030c0-5,12-16,27-24l28-14l-38-22c-29-17-37-28-37-51c0-37,33-124,69-180c15-25,34-62,41-83
		s18-50,26-64c8-15,14-32,14-39c0-18,51-74,61-67c14,8,11,19-11,44c-11,13-20,28-20,34c-1,6-9,29-20,51s-19,47-20,55c0,9-7,26-16,38
		c-39,56-104,184-98,194c4,7,9,6,14-2s15-10,26-5c11,4,29,7,41,6c13-1,28,1,34,5c18,11-11,24-56,24h-39l34,28l33,28l-35,27
		C7102,6041,7080,6047,7080,6030z"/>
	<path class="st0" d="M4317,5973c-14-13-7-56,15-94c25-45,19-58-17-39c-19,10-28,11-37,2s-6-13,11-20l22-8l-21-27l-21-27l-25,29
		c-23,27-24,61-3,61c5,0,9,5,9,10c0,6-18,10-40,10c-52,0-52-17,0-71c22-23,39-43,38-44c-2-1-26-16-55-34c-69-43-109-49-159-22
		c-21,12-43,21-48,21s-17,6-25,13c-20,17-118,57-139,57c-29,0,10-31,85-66c40-19,75-34,78-34c2,0,16-5,30-10c23-9,25-13,15-25
		c-7-8-25-15-40-15s-33-7-41-16c-9-11-22-14-41-10c-39,8-198,77-227,98c-13,10-30,18-38,18c-32,0-2-27,83-73c49-26,93-52,98-58
		c6-5-21-9-75-9c-80,1-89,3-182,49c-54,27-100,45-102,40c-7-10,34-49,51-49c6,0,22-9,35-20l24-20l-45,6c-66,10-85,19-190,88
		c-121,80-118,78-125,66c-3-5,26-30,65-56c38-26,70-49,70-52s-28-2-63,0c-54,5-76,13-156,62c-52,30-98,53-104,49c-12-7,33-46,82-69
		c22-11,30-19,23-26c-20-20-90,4-173,58c-46,30-87,54-91,54c-21,0-3-28,35-52c120-78,119-77,112-111c-4-18-10-35-14-39
		c-3-3-44,19-90,50s-91,62-99,67c-9,6-38,25-65,43c-48,31-77,40-77,24c0-14,23-32,40-32c9,0,27-11,40-25s46-39,74-55
		c108-65,178-118,170-131c-14-24-68,4-209,110c-22,17-56,39-75,50c-19,10-66,42-104,70c-72,54-86,60-86,37c0-12,24-30,167-123
		c36-23,73-49,82-57c10-9,22-16,28-16c5,0,18-10,29-21c30-33,105-82,128-83c29-1,32-44,7-92c-44-87-81-164-81-170c0-4-19-44-41-91
		l-42-83v-134c-1-97,3-139,12-150c21-25,31-9,31,47c0,38,6,62,23,87c13,19,31,58,41,85c9,28,27,68,40,90c21,33,26,37,32,22
		c8-22-4-99-17-108c-6-4-6-16,1-35c7-16,15-49,20-74c12-65,35-154,44-168c10-16,46-15,46,1c0,6-7,44-17,82c-17,72-20,141-10,185
		c4,14,12,49,19,78c6,28,16,52,20,52c9,0,10-2,62-135l35-90l-22-17c-25-19-16-34,23-40c18-2,26-10,28-28c2-14,12-47,22-75
		c33-88,70-219,81-285c11-70,34-162,49-195c5-11,17-42,25-70c9-27,63-144,121-260c75-152,126-239,183-315c80-108,136-165,152-154
		c15,9,10,45-11,71c-11,14-20,31-20,38c0,6-12,22-26,36c-43,39-107,130-139,194c-17,33-40,75-51,92c-29,43-174,387-174,411
		c0,11-6,25-14,31s-16,26-19,44s-8,43-13,57c-7,25-7,25,14,6c11-10,24-32,28-50c3-17,24-64,45-105c22-41,39-80,39-86c0-7,9-20,20-30
		s20-22,20-26c0-14,61-110,120-189c31-41,65-90,75-107c11-18,23-33,27-33s15-17,25-37c13-29,229-277,305-350c31-30,106-91,144-116
		c23-15,52-39,65-53c30-32,198-133,259-155c25-9,106-38,180-65l135-49l350,2c325,0,450,8,550,32c45,11,97,23,235,52
		c52,11,104,25,115,30c11,4,47,15,80,23s96,28,141,44c78,29,416,193,551,268c83,46,269,171,330,222c129,107,212,184,234,216
		c13,20,32,38,41,41c43,15,148,175,148,227c0,9,5,20,10,23c15,9,12-48-5-99c-8-24-20-67-25-96c-5-28-21-88-35-133
		c-20-67-35-93-80-145c-58-67-64-79-40-88c43-17,175,132,175,196c0,9,12,32,26,51c29,39,63,110,89,189c10,30,30,73,44,94l26,40
		l5,312c5,308,10,348,38,330c6-3,14-36,17-72c7-59,10-65,28-62c21,3,38,26,58,83l11,30l13-35c8-19,14-47,14-62c1-15,6-30,11-33
		c6-4,8-10,5-15s-14-51-25-101c-30-137-25-269,10-269c21,0,68,52,74,82c3,18,12,47,20,63c36,78,49,143,42,211c-6,55-4,70,10,85
		c31,34,10,179-35,249c-6,8-31,69-57,135c-45,116-91,185-121,185c-18,0-107,135-201,307c-7,13-17,21-22,18c-10-6,4-52,24-75
		c19-22,59-110,53-116c-12-12-92,112-101,157c-11,60-66,131-66,85c0-8,19-53,43-100c35-69,40-86,27-86c-9,0-21,10-27,23
		c-43,92-88,177-95,177c-13,0-9-43,7-70c26-46,65-133,61-137c-6-6-38,43-90,139c-25,48-51,90-57,94c-26,16-18-12,30-101
		c28-52,51-106,51-118c0-22-1-22-20,3c-11,14-27,45-36,70c-10,25-25,54-35,65s-21,32-24,47c-4,15-13,32-21,39c-8,6-14,18-14,25
		c0,8-7,14-15,14c-22,0-19-19,13-82c16-31,32-77,35-103c4-26,10-52,14-58c5-7,13-24,18-39c9-25,115-121,124-113c2,3-4,16-13,31
		c-18,26-16,41,4,29c6-3,24-33,40-65s34-61,39-64c23-14,19,17-8,74c-17,34-25,60-18,58c7-3,29-38,49-79c36-70,60-99,81-99
		c5,0,2,11-7,25c-9,13-16,31-16,38c0,8-9,22-20,32c-21,19-27,45-10,45c5,0,19-19,31-42c12-24,31-54,43-68c50-56,72-197,46-290
		c-14-48-50-70-215-123c-77-26-176-58-220-72c-44-15-118-37-165-50c-47-12-105-30-130-39c-137-48-346-62-1045-72
		c-452-6-832,4-942,26c-26,5-100,16-163,25c-257,34-359,48-430,55c-101,12-250,43-385,82c-22,6-47,12-55,12c-19,1-245,74-287,92
		c-17,8-41,14-53,14s-52,14-90,30c-38,17-74,30-80,30c-7,0-24,6-38,14c-40,21-113,53-142,61c-40,12-128,61-215,120
		c-103,70-105,71-105,100c0,14-6,42-14,62c-28,79-38,140-26,163c7,13,9,37,5,56c-8,43,2,43,70,0c30-19,73-45,97-57s61-37,82-55
		c42-36,66-43,66-19c0,8-4,15-9,15c-4,0-30,17-57,39c-27,21-65,46-84,55c-124,60-136,80-40,66c65-9,181-65,252-121
		c27-21,60-39,71-39c21,1,21,1-3,23c-14,12-39,32-55,44c-24,17-27,24-18,34c21,21,91-7,176-72c44-32,83-59,89-59c22,0-2,28-65,75
		c-48,37-62,52-52,58c8,4,29,2,47-6c18-7,51-12,73-9c36,3,47-2,103-47c65-53,77-58,87-41c3,5-11,20-32,33c-21,14-46,34-56,45
		c-21,23-29,18,63,42c43,11,49,10,120-24c111-53,156-45,49,9c-27,14-49,29-49,33c0,5,29,19,64,33l64,25l41-28c43-29,96-38,89-15
		c-3,6-14,13-26,15c-11,2-25,9-31,16c-13,15,46,64,98,82c24,8,38,20,41,36c3,14,20,30,43,41c44,22,46,36,8,79c-39,46-54,75-41,83
		c6,4,41,5,77,3c45-2,67,1,70,9c4,12-19,18-118,27C4348,5977,4320,5977,4317,5973z M3377,5564c-3-3-12-4-19-1c-8,3-5,6,6,6
		C3375,5570,3381,5567,3377,5564z M3281,5001c14-10,53-28,88-38c35-11,67-27,72-35c12-21,31-276,23-310c-4-23-11-28-27-26
		c-27,4-110,157-163,303c-20,55-39,106-41,113C3226,5026,3254,5023,3281,5001z M3666,4844c39-17,95-37,126-43c90-19,99-35,114-198
		c7-76,15-150,19-165s2-50-5-78c-10-41-18-54-39-62c-34-13-126-4-156,16c-48,32-133,256-167,441c-5,28-14,62-20,77c-5,15-8,35-4,43
		C3541,4895,3570,4888,3666,4844z M4048,4726c15-7,43-17,62-20c19-4,49-14,65-21c17-8,84-21,149-29c65-9,121-18,124-20
		c6-7-13-104-43-211c-13-49-24-104-25-122c0-17-4-34-10-38c-5-3-14-32-21-65c-13-65-41-120-63-120c-8,0-38,18-67,40
		c-30,22-57,40-61,40c-5,0-8,6-8,14s-8,17-17,21c-22,8-78,122-93,190c-35,155-43,196-47,252c-4,54,7,103,23,103
		C4019,4740,4033,4734,4048,4726z M7688,4579c3-132-9-194-51-271c-17-31-32-42-86-63c-37-14-69-25-73-25c-12,0-49,68-70,132
		c-24,71-32,228-12,248c14,14,265,110,279,106C7681,4704,7686,4651,7688,4579z M4705,4599c66-6,138-17,160-25s54-14,72-14
		c17,0,34-4,38-10c15-24,26-179,15-218c-18-67-105-102-256-102c-106,0-125,18-144,134c-5,35-21,88-35,118s-25,71-25,96
		c0,42,1,43,28,38C4573,4613,4639,4606,4705,4599z M7249,4589c17-6,36-20,43-32c14-27,22-188,10-205c-5-7-33-17-63-21
		c-30-5-61-11-70-15c-13-6-18,0-22,26c-3,18-10,51-15,73c-6,22-12,64-13,94c-3,58-2,59,56,79C7216,4601,7213,4601,7249,4589z
		 M5205,4523c41-10,137-17,301-20l241-6l-3-46c-2-25-5-98-8-161c-4-124-15-166-49-192c-22-17-22-17-3-52c26-49,11-80-52-109
		c-41-19-63-22-177-21c-102,1-146,6-200,22c-39,12-89,26-111,32c-48,12-46,7-71,163c-10,59-17,159-18,237c0,74-4,145-8,157
		c-8,22-6,22,45,17C5121,4541,5172,4531,5205,4523z M6999,4438c-1-157-9-174-104-227c-58-32-94-46-131-49c-51-4-52-4-67,29
		c-41,93-47,121-47,223v104l98,7c53,3,104,8,112,9c8,2,43,4,78,5l62,1L6999,4438z M6570,4431c0-50,5-93,10-96c23-15,3-95-24-95
		c-7,0-34-11-60-25c-53-28-66-31-66-12c0,7-13,26-30,42c-16,16-30,33-30,38s-6,23-14,40c-52,123-65,174-49,190c3,4,64,7,135,7h128
		V4431z M6246,4443c10-96-1-276-19-305c-8-13-18-37-22-54c-12-59-51-79-216-111c-33-6-59,19-59,57c0,16-6,44-14,62
		c-42,97-69,304-48,373c11,39,28,42,219,44l151,1L6246,4443z M6394,3389c57-50,61-80,14-109c-18-11-40-20-48-20c-9,0-33-9-55-20
		s-41-20-42-20c-2,0-3,36-3,79c0,78,1,80,33,105c17,14,37,26,43,26S6368,3412,6394,3389z M6056,3357c66-49,134-120,134-141
		c0-7-12-18-27-23c-80-28-133-43-154-43c-13-1-35-7-49-15s-36-14-49-15h-24l6,93c7,98,18,140,44,169C5962,3410,5993,3403,6056,3357z
		 M5072,3308c42-34,75-95,98-180c7-26,10-54,7-62c-8-20-77-29-112-16c-17,7-65,15-109,20c-48,5-82,13-87,21c-15,24-10,92,12,149
		c26,68,34,78,73,89C5008,3345,5030,3341,5072,3308z M5383,3266c63-46,142-176,119-197c-4-4-64-11-134-15l-128-7v43
		c0,52,43,168,72,192C5333,3301,5337,3300,5383,3266z M4758,3247c30-27,52-76,52-117c0-25-4-30-24-30c-14,0-27,4-31,9
		c-3,5-20,13-38,16c-17,4-45,15-62,24c-16,9-32,17-33,18c-2,1,3,14,12,30c9,15,20,41,26,57c9,25,14,28,42,22
		C4720,3273,4745,3260,4758,3247z M5740,3215c7-8,19-15,26-15c13,0,54-55,54-73c0-4-8-10-17-13c-10-3-31-12-48-19
		c-43-19-99-35-118-35c-14,0-17,10-17,58c0,63,11,81,60,101C5715,3233,5726,3232,5740,3215z"/>
	<path class="st0" d="M1940,5920c0-5,20-24,44-42c23-18,114-88,200-156c87-68,160-121,164-118c9,9-36,54-117,115
		c-127,96-138,105-183,144c-25,20-50,37-55,37c-6,0-16,7-23,15C1956,5932,1940,5935,1940,5920z"/>
	<path class="st0" d="M7232,5898c-8-8-7-15,6-24c16-12,16-13-3-13c-11,0-31,6-45,14c-30,17-53,19-48,4c2-6,34-23,72-39
		c53-23,73-27,88-19c14,7,32,6,66-5c26-8,63-18,82-21c19-4,40-11,45-15c6-4,39-15,75-25c36-9,68-22,71-27c7-10,91-29,98-22
		c9,9-23,33-52,39c-18,3-50,15-72,25c-48,22-121,47-192,65s-145,46-164,62C7248,5906,7241,5907,7232,5898z"/>
	<path class="st0" d="M2132,5864c2-10,19-30,39-44c50-35,127-95,295-230c34-27,88-66,120-86c33-21,64-45,71-53c9-13,14-14,25-3
		c10,10,7,17-17,37c-17,13-33,24-37,25c-7,0-107,74-212,157c-23,18-61,47-86,65c-25,17-66,50-91,72c-26,23-61,49-79,60
		C2129,5882,2128,5882,2132,5864z"/>
	<path class="st0" d="M2350,5843c0-16,18-33,118-109c57-44,133-103,170-131c159-125,222-162,222-134c0,5-15,18-32,29
		c-18,12-50,34-71,49c-20,15-56,41-80,58c-23,16-73,56-111,89c-38,32-92,73-120,91c-29,18-58,40-65,49
		C2367,5851,2350,5855,2350,5843z"/>
	<path class="st0" d="M3990,5817c0-20,77-55,149-66c36-6,67-9,69-6c11,11-14,24-80,40c-40,9-83,23-95,31
		C4005,5834,3990,5834,3990,5817z"/>
	<path class="st0" d="M7200,5793c0-11,11-34,25-53s25-41,25-51c0-9,8-27,18-40c34-43,80-143,87-185c7-44,38-104,55-104
		c13,0,13,6-4,38c-7,15-17,50-21,77c-4,28-13,57-20,65c-14,16-85,152-85,163c0,9-59,95-71,102C7204,5809,7200,5803,7200,5793z"/>
	<path class="st0" d="M7300,5760c0-20,210-440,220-440c15,0,12,41-4,59c-8,9-46,84-84,166c-98,210-105,224-119,225
		C7306,5770,7300,5765,7300,5760z"/>
	<path class="st0" d="M8170,5708c0-18,107-228,125-247c43-44,6,51-82,214C8195,5707,8170,5727,8170,5708z"/>
	<path class="st0" d="M8056,5623c14-21,46-78,71-128c56-111,99-175,118-175c23,0,18,29-9,53c-21,18-72,107-149,257
		c-7,14-23,26-35,28C8030,5661,8030,5661,8056,5623z"/>
	<path class="st0" d="M8000,5626c0-18,157-325,176-345c48-51,5,57-98,247C8021,5633,8000,5659,8000,5626z"/>
	<path class="st0" d="M7940,5585c0-12,11-41,24-65c13-25,36-69,51-98s44-73,66-98c21-25,39-49,39-54c0-4,7-10,15-14c24-9,18,9-30,78
		c-24,36-62,100-84,143c-21,43-48,89-60,103C7942,5603,7941,5604,7940,5585z"/>
	<path class="st0" d="M2380,5581c0-13,29-35,37-28c7,8-15,37-28,37C2384,5590,2380,5586,2380,5581z"/>
	<path class="st0" d="M7870,5561c0-11,4-22,9-25s39-68,76-143c68-138,100-187,116-177c14,8,11,22-10,41c-10,10-24,34-30,53
		c-7,19-37,80-67,135s-57,108-60,118C7896,5586,7870,5585,7870,5561z"/>
	<path class="st0" d="M7823,5520c10-50,137-261,137-228c0,7-29,70-41,88c-5,8-14,26-19,40c-6,14-14,32-20,40c-5,8-17,30-26,48
		C7831,5554,7815,5561,7823,5520z"/>
	<path class="st0" d="M3080,5478c1-13,63-58,81-58c21,0,7,32-23,50C3100,5493,3080,5495,3080,5478z"/>
	<path class="st0" d="M6887,3273c-11-10-8-48,4-60c23-23-14-77-130-193c-90-90-135-126-201-163c-47-26-96-54-110-62s-47-24-75-35
		c-27-12-59-25-70-30s-45-15-75-23s-80-22-110-31c-64-20-153-42-226-56c-101-21-626-14-697,9c-18,5-59,13-92,17c-33,3-67,10-76,15
		c-9,4-60,15-115,24c-170,28-367,91-425,137c-20,15-40,28-43,28c-9,0-104,63-142,94c-56,46-219,137-239,134c-14-2-20-11-20-28
		c0-20,13-32,71-65c38-22,88-54,110-72s76-53,120-79c43-25,93-56,109-68c64-45,211-97,325-115c41-7,92-17,113-22c36-10,73-17,272-56
		c61-11,150-15,370-15c361,0,469,11,583,58c18,8,44,14,58,14s37,6,52,14c15,7,52,19,82,26c74,17,276,119,390,197
		c33,23,156,146,204,206c44,54,56,111,36,171C6929,3278,6905,3291,6887,3273z"/>
	<path class="st0" d="M7060,2950c-8-16-7-26,5-42c8-13,15-33,15-46s5-32,11-43c5-11,16-52,24-92c14-74,27-126,51-209
		c24-85,37-215,25-250c-6-17-11-54-11-82c0-58-31-222-54-281c-8-22-15-47-16-56c0-9-6-22-14-28c-8-7-17-24-21-39c-3-15-29-81-57-147
		c-59-139-113-212-242-330c-111-101-118-105-190-123c-74-18-268-27-293-13c-13,6-35,6-68-1c-58-12-289,5-370,27c-27,7-86,19-130,26
		c-159,23-181,28-250,49c-38,12-119,35-180,52c-119,32-210,57-292,81c-28,8-75,26-105,40c-94,45-307,137-317,137c-6,0-18,8-28,18
		s-34,25-53,32s-114,51-211,97s-184,83-193,83c-10,0-16-8-16-24c0-30,47-63,155-109c44-19,133-60,199-91c65-31,124-56,131-56
		s15-7,19-15c3-8,11-15,18-15c21,0,161-69,185-92c11-11,41-24,65-29c23-5,81-21,128-35s123-37,170-51s96-29,110-35
		c31-12,121-38,175-49c106-22,283-63,350-81c22-6,49-12,60-14c11-1,42-7,69-13c56-13,467-18,485-6c7,4,54,11,105,16
		c83,7,174,26,186,39c3,3,24,18,47,33c68,47,239,220,263,268c13,24,29,48,37,52c16,10,94,128,118,179c8,18,23,45,32,59
		c28,41,93,155,93,162c0,4,13,29,30,55c59,97,79,173,90,342c25,385,25,402,4,398c-28-5-41-88-63-393c-9-120-25-194-55-250
		c-9-16-16-35-16-41s-7-18-16-25c-15-12-16-9-9,41c3,30,11,72,16,93c22,83,39,259,39,395c0,131-1,143-17,140c-15-3-19-18-23-100
		c-3-53-8-99-11-102c-7-7-46,129-64,224c-16,86-33,156-45,185c-5,11-11,33-15,50C7113,2970,7080,2988,7060,2950z M7226,1905
		c-7-18-26-20-26-2s24,41,28,27C7230,1924,7229,1913,7226,1905z"/>
	<path class="st0" d="M3053,2605c-7-19,51-136,79-162c11-10,27-31,35-46c42-82,319-403,496-574c104-100,199-180,249-209
		c10-6,29-21,42-33c12-11,27-21,33-21s26-12,44-27c18-16,63-48,99-73c37-25,96-67,131-93c55-41,126-82,212-122c12-5,60-29,106-53
		c46-23,100-47,120-52s68-21,106-36c167-64,266-94,333-100c47-5,72-3,72,3c0,18-23,30-125,63c-55,17-113,38-130,46
		c-59,27-134,53-197,69c-34,9-79,27-98,39c-19,13-55,32-80,44s-52,26-60,31s-39,19-69,32s-73,38-95,54c-23,17-55,39-73,50
		s-59,39-92,63c-34,23-63,42-67,42c-3,0-29,19-57,43c-48,41-79,63-182,134c-22,15-68,53-102,84c-34,32-71,60-82,64
		c-12,3-21,11-21,16s-55,70-122,144c-223,244-273,305-317,386c-11,20-27,39-36,42c-8,4-15,11-15,17c0,12-79,132-95,142
		C3078,2624,3060,2621,3053,2605z"/>
	<path class="st0" d="M7541,2509c-5-13-14-69-20-124s-22-143-36-195c-15-52-27-104-29-115c-1-11-6-29-12-40s-15-38-19-60
		c-3-21-13-51-20-65s-17-44-20-65c-4-22-12-45-17-52c-5-6-18-42-28-79c-11-37-23-70-28-73c-4-3-14-22-22-41s-21-46-30-60
		c-52-78-132-203-163-255c-19-33-56-86-81-119c-25-32-46-62-46-67s11-11,24-15c39-9,72,21,127,120c29,50,58,96,66,103
		c21,17,117,182,172,298c27,55,65,154,85,220s43,140,50,165c59,186,75,280,77,433C7573,2516,7559,2554,7541,2509z"/>
	<path class="st0" d="M3020,2400c0-11,5-20,10-20c6,0,10,9,10,20s-4,20-10,20C3025,2420,3020,2411,3020,2400z"/>
	<path class="st0" d="M3045,2290c20-121,40-160,157-300c185-223,636-655,859-823c35-26,79-36,79-18s-84,109-162,176
		c-45,39-123,106-172,150c-50,44-121,104-158,133s-82,72-99,95c-18,23-73,85-123,137c-130,136-231,251-246,280c-7,14-25,39-40,55
		c-15,17-34,51-44,76c-9,26-26,55-38,65l-20,19L3045,2290z"/>
</g>
</svg>
