<?xml version="1.0" encoding="utf-8"?>
<!-- Generator: Adobe Illustrator 21.0.2, SVG Export Plug-In . SVG Version: 6.00 Build 0)  -->
<svg version="1.1" id="Capa_1" xmlns="http://www.w3.org/2000/svg" xmlns:xlink="http://www.w3.org/1999/xlink" x="0px" y="0px"
	 viewBox="0 0 26 26" style="enable-background:new 0 0 26 26;" xml:space="preserve">
<style type="text/css">
	.st0{fill:#98C359;}
	.st1{fill:#DC691D;}
	.st2{fill:#F7E6A1;}
	.st3{fill:#26B99A;}
	.st4{fill:#EBBA16;}
	.st5{fill:#ED8A19;}
	.st6{fill:#7383BF;}
	.st7{fill:#EFCE4A;}
	.st8{fill:#368965;}
	.st9{fill:#FFFFFF;}
</style>
<g>
	<g>
		<path class="st0" d="M13,0C5.8,0,0,5.8,0,13s5.8,13,13,13c12,0-0.1-7.2,2.2-9.4C17.7,14.2,26,17.8,26,13C26,5.8,20.2,0,13,0z
			 M15,14.3c-0.6,0-1.6,0.1-2,0.4c-0.6,0.5-0.6,1.3-0.5,1.9c0.1,0.4-0.3,0.7-0.7,0.6c-1-0.5-1.7-1.5-1.5-2.8
			c0.1-1.2,1.1-2.1,2.2-2.3c1.3-0.2,2.4,0.5,2.8,1.6C15.5,14,15.3,14.3,15,14.3z"/>
		<circle class="st1" cx="13" cy="3.6" r="1.8"/>
		<circle class="st2" cx="13" cy="22.4" r="1.8"/>
		<circle class="st3" cx="22.4" cy="12.1" r="1.8"/>
		<circle class="st4" cx="3.6" cy="13" r="1.8"/>
		<circle class="st5" cx="6.3" cy="6.3" r="1.8"/>
		<circle class="st6" cx="18.8" cy="6.3" r="1.8"/>
		<circle class="st7" cx="6.3" cy="19.7" r="1.8"/>
	</g>
</g>
<g>
	<g>
		<g id="check-circle-blank">
			<path class="st8" d="M19.7,0.2c-3.5,0-6.3,2.9-6.3,6.4s2.8,6.4,6.3,6.4S26,10.1,26,6.6S23.2,0.2,19.7,0.2z"/>
		</g>
	</g>
</g>
<g>
	<g>
		<polygon class="st9" points="19.7,8.5 22.9,11.8 24.8,9.8 21.6,6.6 24.8,3.4 22.9,1.5 19.7,4.7 16.5,1.5 14.5,3.4 17.8,6.6 
			14.5,9.8 16.5,11.8 		"/>
	</g>
</g>
</svg>
