<?xml version="1.0" encoding="utf-8"?>
<!-- Generator: Adobe Illustrator 21.0.2, SVG Export Plug-In . SVG Version: 6.00 Build 0)  -->
<svg version="1.1" id="Слой_1" xmlns="http://www.w3.org/2000/svg" xmlns:xlink="http://www.w3.org/1999/xlink" x="0px" y="0px"
	 viewBox="0 0 512 512" style="enable-background:new 0 0 512 512;" xml:space="preserve">
<style type="text/css">
	.st0{fill:none;}
	.st1{fill:#98C359;}
</style>
<g>
	<title>background</title>
	<rect id="canvas_background" x="-1" y="-1" class="st0" width="27" height="18"/>
</g>
<g>
	<title>Layer 1</title>
	<path class="st1" d="M256,0.1l-128,128H32.1c-17.7,0-32,14.3-32,32v191.8c0,17.7,14.3,32,32,32h96l127.9,128c0,0,32,4,32-32V32.1
		C288-3.9,256,0.1,256,0.1z M224,384l-64-64H64V192.1h96l64-64V384z"/>
</g>
<g>
	<g>
		<polygon class="st1" points="411.5,289.6 467.9,346 501.5,312.4 445.1,256 501.5,199.6 467.9,166 411.5,222.4 355.1,166 
			321.5,199.6 377.9,256 321.5,312.4 355.1,346 		"/>
	</g>
</g>
</svg>
