<?xml version="1.0" encoding="utf-8"?>
<!-- Generator: Adobe Illustrator 21.0.2, SVG Export Plug-In . SVG Version: 6.00 Build 0)  -->
<svg version="1.1" id="Capa_1" xmlns="http://www.w3.org/2000/svg" xmlns:xlink="http://www.w3.org/1999/xlink" x="0px" y="0px"
	 viewBox="0 0 23 23" style="enable-background:new 0 0 23 23;" xml:space="preserve">
<style type="text/css">
	.st0{fill:#98C359;}
	.st1{fill:#368965;}
	.st2{fill:#FFFFFF;}
</style>
<g>
	<g>
		<g>
			<circle class="st0" cx="9.4" cy="11.5" r="0.5"/>
		</g>
	</g>
	<g>
		<g>
			<circle class="st0" cx="7.3" cy="11.5" r="0.5"/>
		</g>
	</g>
	<g>
		<g>
			<circle class="st0" cx="9.4" cy="14.1" r="0.5"/>
		</g>
	</g>
	<g>
		<g>
			<circle class="st0" cx="7.3" cy="14.1" r="0.5"/>
		</g>
	</g>
	<g>
		<g>
			<circle class="st0" cx="5.2" cy="11.5" r="0.5"/>
		</g>
	</g>
	<g>
		<g>
			<circle class="st0" cx="3.1" cy="11.5" r="0.5"/>
		</g>
	</g>
	<g>
		<g>
			<circle class="st0" cx="5.2" cy="14.1" r="0.5"/>
		</g>
	</g>
	<g>
		<g>
			<circle class="st0" cx="15.7" cy="11.5" r="0.5"/>
		</g>
	</g>
	<g>
		<g>
			<circle class="st0" cx="13.6" cy="11.5" r="0.5"/>
		</g>
	</g>
	<g>
		<g>
			<circle class="st0" cx="15.7" cy="14.1" r="0.5"/>
		</g>
	</g>
	<g>
		<g>
			<circle class="st0" cx="13.6" cy="14.1" r="0.5"/>
		</g>
	</g>
	<g>
		<g>
			<circle class="st0" cx="19.9" cy="11.5" r="0.5"/>
		</g>
	</g>
	<g>
		<g>
			<circle class="st0" cx="17.8" cy="11.5" r="0.5"/>
		</g>
	</g>
	<g>
		<g>
			<circle class="st0" cx="19.9" cy="14.1" r="0.5"/>
		</g>
	</g>
	<g>
		<g>
			<circle class="st0" cx="17.8" cy="14.1" r="0.5"/>
		</g>
	</g>
	<g>
		<g>
			<circle class="st0" cx="11.5" cy="11.5" r="0.5"/>
		</g>
	</g>
	<g>
		<g>
			<circle class="st0" cx="11.5" cy="14.1" r="0.5"/>
		</g>
	</g>
	<g>
		<g>
			<circle class="st0" cx="3.1" cy="14.1" r="0.5"/>
		</g>
	</g>
	<g>
		<g>
			<circle class="st0" cx="5.2" cy="16.7" r="0.5"/>
		</g>
	</g>
	<g>
		<g>
			<circle class="st0" cx="19.9" cy="16.7" r="0.5"/>
		</g>
	</g>
	<g>
		<g>
			<circle class="st0" cx="17.8" cy="16.7" r="0.5"/>
		</g>
	</g>
	<g>
		<g>
			<circle class="st0" cx="3.1" cy="16.7" r="0.5"/>
		</g>
	</g>
	<g>
		<g>
			<path class="st0" d="M15.7,16.2H7.3c-0.3,0-0.5,0.2-0.5,0.5s0.2,0.5,0.5,0.5h8.4c0.3,0,0.5-0.2,0.5-0.5S16,16.2,15.7,16.2z"/>
		</g>
	</g>
	<g>
		<g>
			<path class="st0" d="M21.4,8.4h-7.8c-0.3,0-0.5,0.2-0.5,0.5s0.2,0.5,0.5,0.5h7.8c0.3,0,0.5,0.2,0.5,0.5v8.4
				c0,0.3-0.2,0.5-0.5,0.5H1.6c-0.3,0-0.5-0.2-0.5-0.5V9.9c0-0.3,0.2-0.5,0.5-0.5h9.9c0.3,0,0.5-0.2,0.5-0.5V6.8
				c0-0.3,0.2-0.5,0.5-0.5h3.7c0.9,0,1.6-0.7,1.6-1.6s-0.7-1.6-1.6-1.6H7.8c-0.3,0-0.5,0.2-0.5,0.5s0.2,0.5,0.5,0.5h8.4
				c0.3,0,0.5,0.2,0.5,0.5s-0.2,0.5-0.5,0.5h-3.7c-0.9,0-1.6,0.7-1.6,1.6v1.6H1.6C0.7,8.4,0,9.1,0,9.9v8.4c0,0.9,0.7,1.6,1.6,1.6
				h19.9c0.9,0,1.6-0.7,1.6-1.6V9.9C23,9.1,22.3,8.4,21.4,8.4z"/>
		</g>
	</g>
</g>
<g>
	<g>
		<g id="check-circle-blank">
			<path class="st1" d="M18.6,3.6c-2.5,0-4.5,2-4.5,4.5s2,4.5,4.5,4.5s4.5-2,4.5-4.5S21.1,3.6,18.6,3.6z"/>
		</g>
	</g>
</g>
<g>
	<g>
		<polygon class="st2" points="18.6,9.3 20.8,11.5 22.1,10.1 19.9,8 22.1,5.8 20.8,4.5 18.6,6.7 16.5,4.5 15.1,5.8 17.3,8 
			15.1,10.1 16.5,11.5 		"/>
	</g>
</g>
</svg>
