<?xml version="1.0" encoding="utf-8"?>
<!-- Generator: Adobe Illustrator 21.0.2, SVG Export Plug-In . SVG Version: 6.00 Build 0)  -->
<svg version="1.1" id="Слой_1" xmlns="http://www.w3.org/2000/svg" xmlns:xlink="http://www.w3.org/1999/xlink" x="0px" y="0px"
	 viewBox="0 0 512 512" style="enable-background:new 0 0 512 512;" xml:space="preserve">
<style type="text/css">
	.st0{fill:none;}
	.st1{fill:#98C359;}
</style>
<g>
	<title>background</title>
	<rect id="canvas_background" x="-1" y="-1" class="st0" width="27" height="18"/>
</g>
<g>
	<title>Layer 1</title>
	<path id="svg_1" class="st1" d="M320,503.5v-67.3c74.4-26.4,127.9-96.7,127.9-180.2c0-83.4-53.6-153.7-127.9-180.2V8.5
		C430.3,37,511.9,136.8,511.9,256S430.3,475,320,503.5L320,503.5z M256,511.9L128.1,383.9H32.1c-17.7,0-32-14.3-32-32V160.1
		c0-17.7,14.3-32,32-32h95.9L256,0.1c0,0,32-4,32,32c0,72.9,0,382.1,0,447.8C288,515.9,256,511.9,256,511.9z M224,128.1l-64,64h-96
		V320h96l64,64V128.1L224,128.1z M415.9,256c0,59.5-40.9,109.1-95.9,123.4v-68.3c19.1-11.1,32-31.5,32-55.1c0-23.6-12.9-44-32-55.1
		v-68.3C375.1,146.9,415.9,196.5,415.9,256z"/>
</g>
</svg>
